RobotoAvar2-XTSP-100.ufo
<glyph name="numbersign" format="2">
  <advance width="1411"/>
  <unicode hex="0023"/>
  <outline>
    <contour>
      <point x="162" y="-20" type="line"/>
      <point x="599" y="1501" type="line"/>
      <point x="743" y="1501" type="line"/>
      <point x="306" y="-20" type="line"/>
    </contour>
    <contour>
      <point x="668" y="-20" type="line"/>
      <point x="1105" y="1501" type="line"/>
      <point x="1249" y="1501" type="line"/>
      <point x="812" y="-20" type="line"/>
    </contour>
    <contour>
      <point x="10" y="404" type="line"/>
      <point x="10" y="542" type="line"/>
      <point x="1351" y="542" type="line"/>
      <point x="1351" y="404" type="line"/>
    </contour>
    <contour>
      <point x="61" y="939" type="line"/>
      <point x="61" y="1077" type="line"/>
      <point x="1401" y="1077" type="line"/>
      <point x="1401" y="939" type="line"/>
    </contour>
  </outline>
</glyph>
<glyph name="quotesingle" format="2">
  <advance width="220"/>
  <unicode hex="0027"/>
  <outline>
    <contour>
      <point x="35" y="966" type="line"/>
      <point x="10" y="1320" type="line"/>
      <point x="10" y="1456" type="line"/>
      <point x="210" y="1456" type="line"/>
      <point x="210" y="1320" type="line"/>
      <point x="185" y="966" type="line"/>
    </contour>
  </outline>
</glyph>
<glyph name="seven" format="2">
  <advance width="994"/>
  <unicode hex="0037"/>
  <outline>
    <contour>
      <point x="226" y="0" type="line"/>
      <point x="784" y="1295" type="line"/>
      <point x="10" y="1295" type="line"/>
      <point x="10" y="1456" type="line"/>
      <point x="984" y="1456" type="line"/>
      <point x="984" y="1352" type="line"/>
      <point x="422" y="0" type="line"/>
    </contour>
  </outline>
</glyph>
<glyph name="at" format="2">
  <advance width="1902"/>
  <unicode hex="0040"/>
  <outline>
    <contour>
      <point x="511" y="400" type="qcurve" smooth="yes"/>
      <point x="511" y="680"/>
      <point x="806" y="1052"/>
      <point x="996" y="1052" type="qcurve" smooth="yes"/>
      <point x="1086" y="1052"/>
      <point x="1236" y="985"/>
      <point x="1286" y="946" type="qcurve"/>
      <point x="1376" y="946" type="line"/>
      <point x="1256" y="350" type="line" smooth="yes"/>
      <point x="1232" y="230"/>
      <point x="1316" y="136"/>
      <point x="1396" y="136" type="qcurve" smooth="yes"/>
      <point x="1536" y="136"/>
      <point x="1712" y="420"/>
      <point x="1712" y="650" type="qcurve" smooth="yes"/>
      <point x="1712" y="920"/>
      <point x="1336" y="1330"/>
      <point x="996" y="1330" type="qcurve" smooth="yes"/>
      <point x="656" y="1330"/>
      <point x="196" y="820"/>
      <point x="196" y="460" type="qcurve" smooth="yes"/>
      <point x="196" y="100"/>
      <point x="596" y="-290"/>
      <point x="896" y="-290" type="qcurve" smooth="yes"/>
      <point x="1036" y="-290"/>
      <point x="1230" y="-236"/>
      <point x="1296" y="-200" type="qcurve"/>
      <point x="1296" y="-356" type="line"/>
      <point x="1226" y="-400"/>
      <point x="1036" y="-446"/>
      <point x="896" y="-446" type="qcurve" smooth="yes"/>
      <point x="536" y="-446"/>
      <point x="10" y="40"/>
      <point x="10" y="460" type="qcurve" smooth="yes"/>
      <point x="10" y="880"/>
      <point x="596" y="1486"/>
      <point x="996" y="1486" type="qcurve" smooth="yes"/>
      <point x="1396" y="1486"/>
      <point x="1892" y="1000"/>
      <point x="1892" y="650" type="qcurve" smooth="yes"/>
      <point x="1892" y="360"/>
      <point x="1616" y="0"/>
      <point x="1416" y="0" type="qcurve" smooth="yes"/>
      <point x="1300" y="0"/>
      <point x="1126" y="100"/>
      <point x="1086" y="180" type="qcurve"/>
      <point x="1036" y="100"/>
      <point x="896" y="0"/>
      <point x="816" y="0" type="qcurve" smooth="yes"/>
      <point x="676" y="0"/>
      <point x="511" y="220"/>
    </contour>
    <contour>
      <point x="701" y="400" type="qcurve" smooth="yes"/>
      <point x="701" y="280"/>
      <point x="786" y="156"/>
      <point x="866" y="156" type="qcurve" smooth="yes"/>
      <point x="936" y="156"/>
      <point x="1049" y="260"/>
      <point x="1076" y="390" type="qcurve" smooth="yes"/>
      <point x="1176" y="870" type="line"/>
      <point x="1146" y="890"/>
      <point x="1066" y="912"/>
      <point x="1026" y="912" type="qcurve" smooth="yes"/>
      <point x="885" y="912"/>
      <point x="701" y="620"/>
    </contour>
  </outline>
</glyph>
<glyph name="U" format="2">
  <advance width="1074"/>
  <unicode hex="0055"/>
  <anchor x="537" y="0" name="bottom"/>
  <anchor x="734" y="0" name="ogonek"/>
  <anchor x="537" y="1456" name="top"/>
  <anchor x="972" y="1456" name="topright"/>
  <outline>
    <contour>
      <point x="10" y="470" type="qcurve" smooth="yes"/>
      <point x="10" y="1456" type="line"/>
      <point x="202" y="1456" type="line"/>
      <point x="202" y="470" type="line" smooth="yes"/>
      <point x="202" y="300"/>
      <point x="387" y="134"/>
      <point x="537" y="134" type="qcurve" smooth="yes"/>
      <point x="687" y="134"/>
      <point x="872" y="300"/>
      <point x="872" y="470" type="qcurve" smooth="yes"/>
      <point x="872" y="1456" type="line"/>
      <point x="1064" y="1456" type="line"/>
      <point x="1064" y="470" type="line" smooth="yes"/>
      <point x="1064" y="220"/>
      <point x="757" y="-30"/>
      <point x="537" y="-30" type="qcurve" smooth="yes"/>
      <point x="317" y="-30"/>
      <point x="10" y="220"/>
    </contour>
  </outline>
</glyph>
<glyph name="backslash" format="2">
  <advance width="694"/>
  <unicode hex="005C"/>
  <outline>
    <contour>
      <point x="10" y="1456" type="line"/>
      <point x="186" y="1456" type="line"/>
      <point x="794" y="-125" type="line"/>
      <point x="618" y="-125" type="line"/>
    </contour>
  </outline>
</glyph>
<glyph name="g" format="2">
  <advance width="957"/>
  <unicode hex="0067"/>
  <anchor x="510" y="-416" name="bottom"/>
  <anchor x="510" y="1052" name="top"/>
  <outline>
    <contour>
      <point x="475" y="-436" type="qcurve" smooth="yes"/>
      <point x="345" y="-436"/>
      <point x="125" y="-350"/>
      <point x="49" y="-284" type="qcurve"/>
      <point x="166" y="-144" type="line"/>
      <point x="210" y="-195"/>
      <point x="370" y="-274"/>
      <point x="470" y="-274" type="qcurve" smooth="yes"/>
      <point x="605" y="-274"/>
      <point x="761" y="-120"/>
      <point x="761" y="20" type="qcurve" smooth="yes"/>
      <point x="761" y="915" type="line"/>
      <point x="771" y="915" type="line"/>
      <point x="779" y="1052" type="line"/>
      <point x="947" y="1052" type="line"/>
      <point x="947" y="20" type="line" smooth="yes"/>
      <point x="947" y="-200"/>
      <point x="685" y="-436"/>
    </contour>
    <contour>
      <point x="490" y="132" type="qcurve" smooth="yes"/>
      <point x="631" y="132"/>
      <point x="804" y="354"/>
      <point x="804" y="503" type="qcurve" smooth="yes"/>
      <point x="804" y="531" type="line" smooth="yes"/>
      <point x="804" y="704"/>
      <point x="626" y="920"/>
      <point x="490" y="920" type="qcurve" smooth="yes"/>
      <point x="340" y="920"/>
      <point x="200" y="702"/>
      <point x="200" y="542" type="qcurve" smooth="yes"/>
      <point x="200" y="510" type="line" smooth="yes"/>
      <point x="200" y="350"/>
      <point x="340" y="132"/>
    </contour>
    <contour>
      <point x="450" y="-20" type="qcurve" smooth="yes"/>
      <point x="250" y="-20"/>
      <point x="10" y="280"/>
      <point x="10" y="510" type="qcurve" smooth="yes"/>
      <point x="10" y="542" type="line" smooth="yes"/>
      <point x="10" y="772"/>
      <point x="250" y="1072"/>
      <point x="450" y="1072" type="qcurve" smooth="yes"/>
      <point x="651" y="1072"/>
      <point x="871" y="769"/>
      <point x="871" y="531" type="qcurve" smooth="yes"/>
      <point x="871" y="505" type="line" smooth="yes"/>
      <point x="871" y="282"/>
      <point x="650" y="-20"/>
    </contour>
  </outline>
</glyph>
<glyph name="l" format="2">
  <advance width="206"/>
  <unicode hex="006C"/>
  <anchor x="103" y="0" name="bottom"/>
  <anchor x="103" y="791" name="center"/>
  <anchor x="103" y="1456" name="top"/>
  <anchor x="296" y="1052" name="topright"/>
  <anchor x="103" y="542" name="yu_dash"/>
  <anchor x="103" y="728" name="slash"/>
  <outline>
    <contour>
      <point x="10" y="0" type="line"/>
      <point x="10" y="1456" type="line"/>
      <point x="196" y="1456" type="line"/>
      <point x="196" y="0" type="line"/>
    </contour>
  </outline>
</glyph>
<glyph name="m" format="2">
  <advance width="1498"/>
  <unicode hex="006D"/>
  <anchor x="744" y="0" name="bottom"/>
  <anchor x="744" y="1052" name="top"/>
  <outline>
    <contour>
      <point x="10" y="0" type="line"/>
      <point x="10" y="1052" type="line"/>
      <point x="178" y="1052" type="line"/>
      <point x="196" y="857" type="line"/>
      <point x="196" y="0" type="line"/>
    </contour>
    <contour>
      <point x="842" y="679" type="qcurve" smooth="yes"/>
      <point x="842" y="0" type="line"/>
      <point x="656" y="0" type="line"/>
      <point x="656" y="681" type="line" smooth="yes"/>
      <point x="656" y="807"/>
      <point x="553" y="916"/>
      <point x="449" y="916" type="qcurve" smooth="yes"/>
      <point x="358" y="916"/>
      <point x="207" y="800"/>
      <point x="103" y="567" type="qcurve"/>
      <point x="103" y="746" type="line"/>
      <point x="174" y="932"/>
      <point x="385" y="1072"/>
      <point x="504" y="1072" type="qcurve" smooth="yes"/>
      <point x="663" y="1072"/>
      <point x="839" y="891"/>
    </contour>
    <contour>
      <point x="749" y="746" type="line"/>
      <point x="820" y="932"/>
      <point x="1031" y="1072"/>
      <point x="1150" y="1072" type="qcurve" smooth="yes"/>
      <point x="1309" y="1072"/>
      <point x="1485" y="891"/>
      <point x="1488" y="679" type="qcurve" smooth="yes"/>
      <point x="1488" y="0" type="line"/>
      <point x="1302" y="0" type="line"/>
      <point x="1302" y="681" type="line" smooth="yes"/>
      <point x="1302" y="807"/>
      <point x="1199" y="916"/>
      <point x="1095" y="916" type="qcurve" smooth="yes"/>
      <point x="1004" y="916"/>
      <point x="853" y="800"/>
      <point x="749" y="567" type="qcurve"/>
    </contour>
  </outline>
</glyph>
<glyph name="braceleft" format="2">
  <advance width="626"/>
  <unicode hex="007B"/>
  <outline>
    <contour>
      <point x="616" y="-312" type="line"/>
      <point x="390" y="-312"/>
      <point x="135" y="-32"/>
      <point x="172" y="123" type="qcurve" smooth="yes"/>
      <point x="222" y="334" type="line" smooth="yes"/>
      <point x="247" y="441"/>
      <point x="122" y="508"/>
      <point x="10" y="508" type="qcurve"/>
      <point x="10" y="640" type="line"/>
      <point x="122" y="640"/>
      <point x="247" y="707"/>
      <point x="222" y="814" type="qcurve" smooth="yes"/>
      <point x="172" y="1025" type="line" smooth="yes"/>
      <point x="135" y="1180"/>
      <point x="390" y="1460"/>
      <point x="616" y="1460" type="qcurve"/>
      <point x="616" y="1314" type="line"/>
      <point x="468" y="1314"/>
      <point x="329" y="1146"/>
      <point x="358" y="1025" type="qcurve" smooth="yes"/>
      <point x="408" y="814" type="line" smooth="yes"/>
      <point x="428" y="730"/>
      <point x="356" y="600"/>
      <point x="258" y="574" type="qcurve"/>
      <point x="356" y="548"/>
      <point x="428" y="418"/>
      <point x="408" y="334" type="qcurve" smooth="yes"/>
      <point x="358" y="123" type="line" smooth="yes"/>
      <point x="329" y="2"/>
      <point x="468" y="-166"/>
      <point x="616" y="-166" type="qcurve"/>
    </contour>
  </outline>
</glyph>
<glyph name="exclamdown" format="2">
  <advance width="268"/>
  <unicode hex="00A1"/>
  <outline>
    <contour>
      <point x="258" y="1053" type="qcurve" smooth="yes"/>
      <point x="258" y="1004"/>
      <point x="194" y="934"/>
      <point x="134" y="934" type="qcurve" smooth="yes"/>
      <point x="74" y="934"/>
      <point x="10" y="1004"/>
      <point x="10" y="1053" type="qcurve" smooth="yes"/>
      <point x="10" y="1102"/>
      <point x="74" y="1172"/>
      <point x="134" y="1172" type="qcurve" smooth="yes"/>
      <point x="194" y="1172"/>
      <point x="258" y="1102"/>
    </contour>
    <contour>
      <point x="216" y="740" type="line"/>
      <point x="231" y="-306" type="line"/>
      <point x="37" y="-306" type="line"/>
      <point x="52" y="740" type="line"/>
    </contour>
  </outline>
</glyph>
<glyph name="cent" format="2">
  <advance width="933"/>
  <unicode hex="00A2"/>
  <outline>
    <contour>
      <point x="492" y="282" type="qcurve" smooth="yes"/>
      <point x="607" y="282"/>
      <point x="739" y="391"/>
      <point x="747" y="492" type="qcurve"/>
      <point x="923" y="492" type="line"/>
      <point x="913" y="318"/>
      <point x="690" y="130"/>
      <point x="492" y="130" type="qcurve" smooth="yes"/>
      <point x="260" y="130"/>
      <point x="10" y="410"/>
      <point x="10" y="670" type="qcurve" smooth="yes"/>
      <point x="10" y="712" type="line" smooth="yes"/>
      <point x="10" y="972"/>
      <point x="260" y="1252"/>
      <point x="492" y="1252" type="qcurve" smooth="yes"/>
      <point x="692" y="1252"/>
      <point x="915" y="1049"/>
      <point x="923" y="860" type="qcurve"/>
      <point x="747" y="860" type="line"/>
      <point x="739" y="976"/>
      <point x="607" y="1100"/>
      <point x="492" y="1100" type="qcurve" smooth="yes"/>
      <point x="349" y="1100"/>
      <point x="196" y="899"/>
      <point x="196" y="712" type="qcurve" smooth="yes"/>
      <point x="196" y="670" type="line" smooth="yes"/>
      <point x="196" y="483"/>
      <point x="349" y="282"/>
    </contour>
    <contour>
      <point x="414" y="0" type="line"/>
      <point x="414" y="197" type="line"/>
      <point x="419" y="211" type="line"/>
      <point x="419" y="708" type="line"/>
      <point x="559" y="708" type="line"/>
      <point x="559" y="210" type="line"/>
      <point x="564" y="200" type="line"/>
      <point x="564" y="0" type="line"/>
    </contour>
    <contour>
      <point x="419" y="708" type="line"/>
      <point x="419" y="1182" type="line"/>
      <point x="414" y="1192" type="line"/>
      <point x="414" y="1402" type="line"/>
      <point x="564" y="1402" type="line"/>
      <point x="564" y="1192" type="line"/>
      <point x="559" y="1179" type="line"/>
      <point x="559" y="708" type="line"/>
    </contour>
  </outline>
</glyph>
<glyph name="section" format="2">
  <advance width="1036"/>
  <unicode hex="00A7"/>
  <guideline x="0" y="1658" angle="0" identifier="QzZ5gIiCyn"/>
  <guideline x="0" y="578" angle="0" identifier="9Hxjf2sdFw"/>
  <outline>
    <contour>
      <point x="582" y="133" type="qcurve"/>
      <point x="582" y="252" type="line"/>
      <point x="692" y="252"/>
      <point x="845" y="376"/>
      <point x="845" y="463" type="qcurve"/>
      <point x="845" y="556"/>
      <point x="678" y="672"/>
      <point x="497" y="734" type="qcurve" smooth="yes"/>
      <point x="304" y="794"/>
      <point x="87" y="949"/>
      <point x="87" y="1129" type="qcurve" smooth="yes"/>
      <point x="87" y="1305"/>
      <point x="312" y="1490"/>
      <point x="514" y="1491" type="qcurve" smooth="yes"/>
      <point x="707" y="1492"/>
      <point x="931" y="1294"/>
      <point x="930" y="1100" type="qcurve"/>
      <point x="765" y="1100" type="line"/>
      <point x="766" y="1200"/>
      <point x="635" y="1337"/>
      <point x="514" y="1337" type="qcurve" smooth="yes"/>
      <point x="374" y="1337"/>
      <point x="252" y="1239"/>
      <point x="252" y="1140" type="qcurve" smooth="yes"/>
      <point x="252" y="1049"/>
      <point x="375" y="961"/>
      <point x="575" y="897" type="qcurve" smooth="yes"/>
      <point x="759" y="839"/>
      <point x="1026" y="652"/>
      <point x="1026" y="478" type="qcurve" smooth="yes"/>
      <point x="1026" y="315"/>
      <point x="761" y="133"/>
    </contour>
    <contour>
      <point x="437" y="894" type="qcurve"/>
      <point x="437" y="756" type="line"/>
      <point x="316" y="756"/>
      <point x="192" y="649"/>
      <point x="192" y="567" type="qcurve" smooth="yes"/>
      <point x="192" y="487"/>
      <point x="338" y="387"/>
      <point x="527" y="317" type="qcurve" smooth="yes"/>
      <point x="703" y="252"/>
      <point x="939" y="66"/>
      <point x="939" y="-113" type="qcurve" smooth="yes"/>
      <point x="939" y="-298"/>
      <point x="685" y="-509"/>
      <point x="490" y="-509" type="qcurve" smooth="yes"/>
      <point x="295" y="-509"/>
      <point x="22" y="-303"/>
      <point x="22" y="-70" type="qcurve"/>
      <point x="186" y="-70" type="line"/>
      <point x="186" y="-230"/>
      <point x="384" y="-355"/>
      <point x="490" y="-355" type="qcurve" smooth="yes"/>
      <point x="607" y="-355"/>
      <point x="775" y="-244"/>
      <point x="775" y="-136" type="qcurve" smooth="yes"/>
      <point x="775" y="-35"/>
      <point x="633" y="94"/>
      <point x="431" y="161" type="qcurve" smooth="yes"/>
      <point x="246" y="222"/>
      <point x="10" y="420"/>
      <point x="10" y="577" type="qcurve" smooth="yes"/>
      <point x="10" y="727"/>
      <point x="266" y="894"/>
    </contour>
  </outline>
</glyph>
<glyph name="ordfeminine" format="2">
  <advance width="663"/>
  <unicode hex="00AA"/>
  <guideline x="0" y="1681" angle="0" identifier="3CJlALCfkl"/>
  <guideline x="0" y="909" angle="0" identifier="Zdl6NZVQAy"/>
  <outline>
    <contour>
      <point x="475" y="862" type="line"/>
      <point x="475" y="821"/>
      <point x="495" y="736"/>
      <point x="518" y="706" type="qcurve"/>
      <point x="653" y="706" type="line"/>
      <point x="639" y="749"/>
      <point x="627" y="838"/>
      <point x="627" y="887" type="qcurve" smooth="yes"/>
      <point x="627" y="1201" type="line" smooth="yes"/>
      <point x="627" y="1338"/>
      <point x="468" y="1477"/>
      <point x="333" y="1477" type="qcurve" smooth="yes"/>
      <point x="206" y="1477"/>
      <point x="34" y="1356"/>
      <point x="34" y="1261" type="qcurve" smooth="yes"/>
      <point x="34" y="1234" type="line"/>
      <point x="189" y="1234" type="line"/>
      <point x="189" y="1247" type="line" smooth="yes"/>
      <point x="189" y="1292"/>
      <point x="264" y="1346"/>
      <point x="335" y="1346" type="qcurve" smooth="yes"/>
      <point x="402" y="1346"/>
      <point x="475" y="1276"/>
      <point x="475" y="1202" type="qcurve" smooth="yes"/>
    </contour>
    <contour>
      <point x="552" y="1149" type="line"/>
      <point x="346" y="1149" type="line" smooth="yes"/>
      <point x="177" y="1149"/>
      <point x="10" y="1028"/>
      <point x="10" y="918" type="qcurve" smooth="yes"/>
      <point x="10" y="816"/>
      <point x="137" y="692"/>
      <point x="256" y="692" type="qcurve" smooth="yes"/>
      <point x="357" y="692"/>
      <point x="490" y="794"/>
      <point x="552" y="852" type="qcurve"/>
      <point x="552" y="975" type="line"/>
      <point x="492" y="911"/>
      <point x="359" y="822"/>
      <point x="295" y="822" type="qcurve" smooth="yes"/>
      <point x="231" y="822"/>
      <point x="167" y="879"/>
      <point x="167" y="922" type="qcurve" smooth="yes"/>
      <point x="167" y="969"/>
      <point x="257" y="1042"/>
      <point x="347" y="1042" type="qcurve" smooth="yes"/>
      <point x="552" y="1042" type="line"/>
    </contour>
  </outline>
</glyph>
<glyph name="threesuperior" format="2">
  <advance width="624"/>
  <unicode hex="00B3"/>
  <outline>
    <contour>
      <point x="10" y="920" type="qcurve" smooth="yes"/>
      <point x="10" y="923" type="line"/>
      <point x="167" y="923" type="line"/>
      <point x="167" y="920" type="line" smooth="yes"/>
      <point x="167" y="875"/>
      <point x="247" y="824"/>
      <point x="313" y="824" type="qcurve" smooth="yes"/>
      <point x="382" y="824"/>
      <point x="446" y="876"/>
      <point x="446" y="925" type="qcurve" smooth="yes"/>
      <point x="446" y="978"/>
      <point x="370" y="1028"/>
      <point x="297" y="1029" type="qcurve" smooth="yes"/>
      <point x="213" y="1029" type="line"/>
      <point x="213" y="1151" type="line"/>
      <point x="297" y="1151" type="line" smooth="yes"/>
      <point x="369" y="1151"/>
      <point x="433" y="1207"/>
      <point x="433" y="1255" type="qcurve" smooth="yes"/>
      <point x="433" y="1299"/>
      <point x="379" y="1349"/>
      <point x="310" y="1349" type="qcurve" smooth="yes"/>
      <point x="253" y="1349"/>
      <point x="178" y="1299"/>
      <point x="178" y="1256" type="qcurve" smooth="yes"/>
      <point x="178" y="1252" type="line"/>
      <point x="21" y="1252" type="line"/>
      <point x="21" y="1256" type="line" smooth="yes"/>
      <point x="21" y="1357"/>
      <point x="188" y="1487"/>
      <point x="307" y="1487" type="qcurve" smooth="yes"/>
      <point x="437" y="1487"/>
      <point x="603" y="1372"/>
      <point x="603" y="1263" type="qcurve" smooth="yes"/>
      <point x="603" y="1212"/>
      <point x="540" y="1120"/>
      <point x="480" y="1098" type="qcurve"/>
      <point x="480" y="1097" type="line"/>
      <point x="547" y="1073"/>
      <point x="614" y="981"/>
      <point x="614" y="917" type="qcurve" smooth="yes"/>
      <point x="614" y="807"/>
      <point x="438" y="686"/>
      <point x="308" y="686" type="qcurve" smooth="yes"/>
      <point x="175" y="686"/>
      <point x="10" y="802"/>
    </contour>
  </outline>
</glyph>
<glyph name="germandbls" format="2">
  <advance width="1010"/>
  <unicode hex="00DF"/>
  <outline>
    <contour>
      <point x="193" y="1034" type="qcurve" name="hr00"/>
      <point x="193" y="0" type="line"/>
      <point x="9" y="0" type="line"/>
      <point x="9" y="1034" type="line" smooth="yes"/>
      <point x="9" y="1237"/>
      <point x="217" y="1476"/>
      <point x="412" y="1476" type="qcurve" smooth="yes"/>
      <point x="580" y="1476"/>
      <point x="778" y="1303"/>
      <point x="778" y="1157" type="qcurve" smooth="yes"/>
      <point x="778" y="1083"/>
      <point x="727" y="979"/>
      <point x="691" y="935" type="qcurve" smooth="yes"/>
      <point x="660" y="897"/>
      <point x="598" y="816"/>
      <point x="598" y="785" type="qcurve" smooth="yes"/>
      <point x="598" y="754"/>
      <point x="733" y="653"/>
      <point x="814" y="591" type="qcurve" smooth="yes"/>
      <point x="892" y="532"/>
      <point x="999" y="395"/>
      <point x="999" y="292" type="qcurve" smooth="yes"/>
      <point x="999" y="167"/>
      <point x="781" y="-20"/>
      <point x="614" y="-20" type="qcurve" smooth="yes"/>
      <point x="450" y="-20"/>
      <point x="253" y="129"/>
      <point x="253" y="278" type="qcurve" smooth="yes"/>
      <point x="253" y="304" type="line"/>
      <point x="416" y="304" type="line"/>
      <point x="416" y="295" type="line" smooth="yes"/>
      <point x="416" y="211"/>
      <point x="521" y="131"/>
      <point x="614" y="131" type="qcurve" smooth="yes"/>
      <point x="717" y="131"/>
      <point x="824" y="218"/>
      <point x="824" y="292" type="qcurve" smooth="yes"/>
      <point x="824" y="352"/>
      <point x="726" y="438"/>
      <point x="668" y="484" type="qcurve" smooth="yes"/>
      <point x="596" y="541"/>
      <point x="424" y="683"/>
      <point x="424" y="785" type="qcurve" smooth="yes"/>
      <point x="424" y="847"/>
      <point x="513" y="967"/>
      <point x="545" y="1011" type="qcurve" smooth="yes"/>
      <point x="574" y="1051"/>
      <point x="603" y="1105"/>
      <point x="603" y="1157" type="qcurve" smooth="yes"/>
      <point x="603" y="1235"/>
      <point x="494" y="1325"/>
      <point x="412" y="1325" type="qcurve" smooth="yes"/>
      <point x="309" y="1325"/>
      <point x="193" y="1183"/>
    </contour>
  </outline>
</glyph>
<glyph name="oe" format="2">
  <advance width="1744"/>
  <unicode hex="0153"/>
  <outline>
    <contour>
      <point x="506" y="-30" type="qcurve" smooth="yes"/>
      <point x="280" y="-30"/>
      <point x="10" y="272"/>
      <point x="10" y="510" type="qcurve" smooth="yes"/>
      <point x="10" y="542" type="line" smooth="yes"/>
      <point x="10" y="780"/>
      <point x="280" y="1081"/>
      <point x="506" y="1081" type="qcurve" smooth="yes"/>
      <point x="670" y="1081"/>
      <point x="882" y="921"/>
      <point x="902" y="866" type="qcurve"/>
      <point x="922" y="926"/>
      <point x="1141" y="1081"/>
      <point x="1295" y="1081" type="qcurve" smooth="yes"/>
      <point x="1502" y="1081"/>
      <point x="1734" y="800"/>
      <point x="1734" y="560" type="qcurve" smooth="yes"/>
      <point x="1734" y="484" type="line"/>
      <point x="925" y="484" type="line"/>
      <point x="925" y="632" type="line"/>
      <point x="1546" y="632" type="line"/>
      <point x="1546" y="656" type="line" smooth="yes"/>
      <point x="1546" y="770"/>
      <point x="1417" y="929"/>
      <point x="1295" y="929" type="qcurve" smooth="yes"/>
      <point x="1147" y="929"/>
      <point x="1001" y="706"/>
      <point x="1001" y="542" type="qcurve" smooth="yes"/>
      <point x="1001" y="510" type="line" smooth="yes"/>
      <point x="1001" y="346"/>
      <point x="1145" y="122"/>
      <point x="1307" y="122" type="qcurve" smooth="yes"/>
      <point x="1407" y="122"/>
      <point x="1561" y="210"/>
      <point x="1606" y="270" type="qcurve"/>
      <point x="1726" y="175" type="line"/>
      <point x="1676" y="100"/>
      <point x="1467" y="-30"/>
      <point x="1307" y="-30" type="qcurve" smooth="yes"/>
      <point x="1141" y="-30"/>
      <point x="934" y="110"/>
      <point x="904" y="185" type="qcurve"/>
      <point x="874" y="111"/>
      <point x="670" y="-30"/>
    </contour>
    <contour>
      <point x="506" y="122" type="qcurve" smooth="yes"/>
      <point x="658" y="122"/>
      <point x="812" y="346"/>
      <point x="812" y="510" type="qcurve" smooth="yes"/>
      <point x="812" y="542" type="line" smooth="yes"/>
      <point x="812" y="706"/>
      <point x="658" y="930"/>
      <point x="506" y="930" type="qcurve" smooth="yes"/>
      <point x="354" y="930"/>
      <point x="200" y="705"/>
      <point x="200" y="542" type="qcurve" smooth="yes"/>
      <point x="200" y="510" type="line" smooth="yes"/>
      <point x="200" y="347"/>
      <point x="354" y="122"/>
    </contour>
  </outline>
</glyph>
<glyph name="primemod" format="2">
  <advance width="261"/>
  <unicode hex="02B9"/>
  <outline>
    <contour>
      <point x="62" y="1502" type="line"/>
      <point x="251" y="1502" type="line"/>
      <point x="132" y="991" type="line"/>
      <point x="10" y="996" type="line"/>
    </contour>
  </outline>
</glyph>
<glyph name="Theta" format="2">
  <advance width="1250"/>
  <unicode hex="0398"/>
  <outline>
    <contour>
      <point x="625" y="-30" type="qcurve" smooth="yes"/>
      <point x="355" y="-30"/>
      <point x="10" y="346"/>
      <point x="10" y="682" type="qcurve" smooth="yes"/>
      <point x="10" y="774" type="line" smooth="yes"/>
      <point x="10" y="1110"/>
      <point x="355" y="1486"/>
      <point x="625" y="1486" type="qcurve" smooth="yes"/>
      <point x="895" y="1486"/>
      <point x="1240" y="1110"/>
      <point x="1240" y="774" type="qcurve" smooth="yes"/>
      <point x="1240" y="682" type="line" smooth="yes"/>
      <point x="1240" y="346"/>
      <point x="895" y="-30"/>
    </contour>
    <contour>
      <point x="625" y="134" type="qcurve" smooth="yes"/>
      <point x="815" y="134"/>
      <point x="1046" y="426"/>
      <point x="1046" y="682" type="qcurve" smooth="yes"/>
      <point x="1046" y="774" type="line" smooth="yes"/>
      <point x="1046" y="1030"/>
      <point x="815" y="1322"/>
      <point x="625" y="1322" type="qcurve" smooth="yes"/>
      <point x="435" y="1322"/>
      <point x="204" y="1030"/>
      <point x="204" y="774" type="qcurve" smooth="yes"/>
      <point x="204" y="682" type="line" smooth="yes"/>
      <point x="204" y="426"/>
      <point x="435" y="134"/>
    </contour>
    <contour>
      <point x="363" y="659" type="line"/>
      <point x="363" y="827" type="line"/>
      <point x="887" y="827" type="line"/>
      <point x="887" y="659" type="line"/>
    </contour>
  </outline>
</glyph>
<glyph name="Pi" format="2">
  <advance width="1118"/>
  <unicode hex="03A0"/>
  <outline>
    <contour>
      <point x="10" y="0" type="line"/>
      <point x="10" y="1456" type="line"/>
      <point x="1108" y="1456" type="line"/>
      <point x="1108" y="0" type="line"/>
      <point x="916" y="0" type="line"/>
      <point x="916" y="1298" type="line"/>
      <point x="202" y="1298" type="line"/>
      <point x="202" y="0" type="line"/>
    </contour>
  </outline>
</glyph>
<glyph name="Sigma" format="2">
  <advance width="1079"/>
  <unicode hex="03A3"/>
  <outline>
    <contour>
      <point x="10" y="0" type="line"/>
      <point x="10" y="121" type="line"/>
      <point x="515" y="748" type="line"/>
      <point x="515" y="702" type="line"/>
      <point x="22" y="1304" type="line"/>
      <point x="22" y="1456" type="line"/>
      <point x="1037" y="1456" type="line"/>
      <point x="1037" y="1299" type="line"/>
      <point x="241" y="1299" type="line"/>
      <point x="252" y="1322" type="line"/>
      <point x="721" y="756" type="line"/>
      <point x="721" y="716" type="line"/>
      <point x="254" y="135" type="line"/>
      <point x="243" y="158" type="line"/>
      <point x="1069" y="158" type="line"/>
      <point x="1069" y="0" type="line"/>
    </contour>
  </outline>
</glyph>
<glyph name="beta" format="2">
  <advance width="977"/>
  <unicode hex="03B2"/>
  <outline>
    <contour>
      <point x="10" y="-416" type="line"/>
      <point x="10" y="978" type="line" smooth="yes"/>
      <point x="10" y="1231"/>
      <point x="259" y="1476"/>
      <point x="457" y="1476" type="qcurve" smooth="yes"/>
      <point x="660" y="1476"/>
      <point x="876" y="1270"/>
      <point x="876" y="1075" type="qcurve"/>
      <point x="876" y="956"/>
      <point x="736" y="779"/>
      <point x="632" y="754" type="qcurve"/>
      <point x="632" y="770" type="line"/>
      <point x="785" y="750"/>
      <point x="967" y="560"/>
      <point x="967" y="423" type="qcurve" smooth="yes"/>
      <point x="967" y="233"/>
      <point x="697" y="-21"/>
      <point x="508" y="-21" type="qcurve" smooth="yes"/>
      <point x="360" y="-21"/>
      <point x="157" y="147"/>
      <point x="100" y="254" type="qcurve"/>
      <point x="100" y="491" type="line"/>
      <point x="172" y="309"/>
      <point x="350" y="132"/>
      <point x="495" y="132" type="qcurve" smooth="yes"/>
      <point x="630" y="132"/>
      <point x="778" y="306"/>
      <point x="778" y="422" type="qcurve" smooth="yes"/>
      <point x="778" y="540"/>
      <point x="625" y="685"/>
      <point x="432" y="685" type="qcurve" smooth="yes"/>
      <point x="334" y="685" type="line"/>
      <point x="334" y="827" type="line"/>
      <point x="433" y="827" type="line" smooth="yes"/>
      <point x="575" y="827"/>
      <point x="701" y="967"/>
      <point x="701" y="1076" type="qcurve" smooth="yes"/>
      <point x="701" y="1189"/>
      <point x="591" y="1324"/>
      <point x="457" y="1324" type="qcurve" smooth="yes"/>
      <point x="324" y="1324"/>
      <point x="196" y="1156"/>
      <point x="196" y="985" type="qcurve" smooth="yes"/>
      <point x="196" y="-416" type="line"/>
    </contour>
  </outline>
</glyph>
<glyph name="epsilon" format="2">
  <advance width="935"/>
  <unicode hex="03B5"/>
  <anchor x="484" y="1052" name="top"/>
  <outline>
    <contour>
      <point x="454" y="-30" type="qcurve"/>
      <point x="238" y="-30"/>
      <point x="10" y="133"/>
      <point x="10" y="286" type="qcurve" smooth="yes"/>
      <point x="10" y="380"/>
      <point x="143" y="524"/>
      <point x="287" y="536" type="qcurve"/>
      <point x="287" y="514" type="line"/>
      <point x="173" y="531"/>
      <point x="49" y="658"/>
      <point x="49" y="756" type="qcurve" smooth="yes"/>
      <point x="49" y="906"/>
      <point x="274" y="1081"/>
      <point x="484" y="1081" type="qcurve" smooth="yes"/>
      <point x="707" y="1081"/>
      <point x="925" y="858"/>
      <point x="925" y="710" type="qcurve"/>
      <point x="745" y="710" type="line"/>
      <point x="745" y="801"/>
      <point x="627" y="930"/>
      <point x="484" y="930" type="qcurve" smooth="yes"/>
      <point x="363" y="930"/>
      <point x="238" y="845"/>
      <point x="238" y="755" type="qcurve" smooth="yes"/>
      <point x="238" y="674"/>
      <point x="335" y="597"/>
      <point x="420" y="597" type="qcurve" smooth="yes"/>
      <point x="630" y="597" type="line"/>
      <point x="630" y="455" type="line"/>
      <point x="420" y="455" type="line" smooth="yes"/>
      <point x="301" y="455"/>
      <point x="200" y="365"/>
      <point x="200" y="296" type="qcurve" smooth="yes"/>
      <point x="200" y="212"/>
      <point x="321" y="122"/>
      <point x="464" y="122" type="qcurve"/>
      <point x="598" y="122"/>
      <point x="744" y="245"/>
      <point x="744" y="342" type="qcurve"/>
      <point x="924" y="342" type="line"/>
      <point x="924" y="191"/>
      <point x="671" y="-30"/>
    </contour>
  </outline>
</glyph>
<glyph name="Kaisymbol" format="2">
  <advance width="1128"/>
  <unicode hex="03CF"/>
  <outline>
    <contour>
      <point x="10" y="0" type="line"/>
      <point x="10" y="1456" type="line"/>
      <point x="202" y="1456" type="line"/>
      <point x="202" y="0" type="line"/>
    </contour>
    <contour>
      <point x="106" y="397" type="line"/>
      <point x="106" y="634" type="line"/>
      <point x="850" y="1456" type="line"/>
      <point x="1082" y="1456" type="line"/>
      <point x="434" y="752" type="line"/>
    </contour>
    <contour>
      <point x="867" y="31" type="line"/>
      <point x="333" y="746" type="line"/>
      <point x="457" y="881" type="line"/>
      <point x="1118" y="14" type="line"/>
      <point x="367" y="-590" type="line"/>
      <point x="253" y="-456" type="line"/>
    </contour>
  </outline>
</glyph>
<glyph name="Dje" format="2">
  <advance width="1507"/>
  <unicode hex="0402"/>
  <guideline x="568" y="625" angle="90" identifier="YDADns81zF"/>
  <outline>
    <contour>
      <point x="458" y="0" type="line"/>
      <point x="458" y="1378" type="line"/>
      <point x="650" y="1378" type="line"/>
      <point x="650" y="0" type="line"/>
    </contour>
    <contour>
      <point x="1093" y="0" type="line"/>
      <point x="1093" y="182" type="line"/>
      <point x="1101" y="182" type="line" smooth="yes"/>
      <point x="1204" y="182"/>
      <point x="1305" y="305"/>
      <point x="1305" y="407" type="qcurve" smooth="yes"/>
      <point x="1305" y="423" type="line" smooth="yes"/>
      <point x="1305" y="551"/>
      <point x="1149" y="692"/>
      <point x="928" y="692" type="qcurve" smooth="yes"/>
      <point x="820" y="692"/>
      <point x="647" y="671"/>
      <point x="554" y="649" type="qcurve"/>
      <point x="554" y="807" type="line"/>
      <point x="646" y="829"/>
      <point x="824" y="850"/>
      <point x="941" y="850" type="qcurve" smooth="yes"/>
      <point x="1241" y="850"/>
      <point x="1497" y="624"/>
      <point x="1497" y="432" type="qcurve" smooth="yes"/>
      <point x="1497" y="409" type="line" smooth="yes"/>
      <point x="1497" y="235"/>
      <point x="1298" y="0"/>
      <point x="1101" y="0" type="qcurve" smooth="yes"/>
    </contour>
    <contour>
      <point x="10" y="1298" type="line"/>
      <point x="10" y="1456" type="line"/>
      <point x="1138" y="1456" type="line"/>
      <point x="1138" y="1298" type="line"/>
    </contour>
  </outline>
</glyph>
<glyph name="Dzhe" format="2">
  <advance width="1118"/>
  <unicode hex="040F"/>
  <outline>
    <contour>
      <point x="10" y="0" type="line"/>
      <point x="10" y="1456" type="line"/>
      <point x="202" y="1456" type="line"/>
      <point x="202" y="158" type="line"/>
      <point x="916" y="158" type="line"/>
      <point x="916" y="1456" type="line"/>
      <point x="1108" y="1456" type="line"/>
      <point x="1108" y="0" type="line"/>
    </contour>
    <contour>
      <point x="473" y="-290" type="line"/>
      <point x="473" y="80" type="line"/>
      <point x="645" y="80" type="line"/>
      <point x="645" y="-290" type="line"/>
    </contour>
  </outline>
</glyph>
<glyph name="Sha" format="2">
  <advance width="1624"/>
  <unicode hex="0428"/>
  <anchor x="1522" y="0" name="cy_descender"/>
  <outline>
    <contour>
      <point x="10" y="1456" type="line"/>
      <point x="202" y="1456" type="line"/>
      <point x="202" y="158" type="line"/>
      <point x="716" y="158" type="line"/>
      <point x="716" y="1456" type="line"/>
      <point x="908" y="1456" type="line"/>
      <point x="908" y="158" type="line"/>
      <point x="1422" y="158" type="line"/>
      <point x="1422" y="1456" type="line"/>
      <point x="1614" y="1456" type="line"/>
      <point x="1614" y="0" type="line"/>
      <point x="10" y="0" type="line"/>
    </contour>
  </outline>
</glyph>
<glyph name="Hard" format="2">
  <advance width="1275"/>
  <unicode hex="042A"/>
  <outline>
    <contour>
      <point x="285" y="0" type="line"/>
      <point x="285" y="1298" type="line"/>
      <point x="10" y="1298" type="line"/>
      <point x="10" y="1456" type="line"/>
      <point x="477" y="1456" type="line"/>
      <point x="477" y="158" type="line"/>
      <point x="767" y="158" type="line" smooth="yes"/>
      <point x="937" y="158"/>
      <point x="1073" y="325"/>
      <point x="1073" y="445" type="qcurve" smooth="yes"/>
      <point x="1073" y="565"/>
      <point x="937" y="728"/>
      <point x="767" y="728" type="qcurve" smooth="yes"/>
      <point x="394" y="728" type="line"/>
      <point x="394" y="886" type="line"/>
      <point x="767" y="886" type="line" smooth="yes"/>
      <point x="1007" y="886"/>
      <point x="1265" y="645"/>
      <point x="1265" y="445" type="qcurve" smooth="yes"/>
      <point x="1265" y="245"/>
      <point x="1007" y="0"/>
      <point x="767" y="0" type="qcurve" smooth="yes"/>
    </contour>
  </outline>
</glyph>
<glyph name="ze" format="2">
  <advance width="916"/>
  <unicode hex="0437"/>
  <anchor x="477" y="-1" name="bottom"/>
  <outline>
    <contour>
      <point x="458" y="-30" type="qcurve" smooth="yes"/>
      <point x="227" y="-30"/>
      <point x="10" y="197"/>
      <point x="10" y="337" type="qcurve" smooth="yes"/>
      <point x="10" y="342" type="line"/>
      <point x="190" y="342" type="line"/>
      <point x="190" y="337" type="line" smooth="yes"/>
      <point x="190" y="256"/>
      <point x="308" y="122"/>
      <point x="459" y="122" type="qcurve" smooth="yes"/>
      <point x="583" y="122"/>
      <point x="719" y="222"/>
      <point x="719" y="309" type="qcurve" smooth="yes"/>
      <point x="719" y="379"/>
      <point x="625" y="463"/>
      <point x="523" y="463" type="qcurve" smooth="yes"/>
      <point x="338" y="463" type="line"/>
      <point x="338" y="607" type="line"/>
      <point x="493" y="607" type="line" smooth="yes"/>
      <point x="596" y="607"/>
      <point x="686" y="690"/>
      <point x="686" y="761" type="qcurve" smooth="yes"/>
      <point x="686" y="842"/>
      <point x="573" y="930"/>
      <point x="471" y="930" type="qcurve" smooth="yes"/>
      <point x="341" y="930"/>
      <point x="210" y="809"/>
      <point x="210" y="715" type="qcurve" smooth="yes"/>
      <point x="210" y="710" type="line"/>
      <point x="30" y="710" type="line"/>
      <point x="30" y="715" type="line" smooth="yes"/>
      <point x="30" y="882"/>
      <point x="261" y="1082"/>
      <point x="471" y="1082" type="qcurve" smooth="yes"/>
      <point x="671" y="1082"/>
      <point x="874" y="916"/>
      <point x="874" y="776" type="qcurve" smooth="yes"/>
      <point x="874" y="695"/>
      <point x="766" y="563"/>
      <point x="675" y="544" type="qcurve"/>
      <point x="675" y="541" type="line"/>
      <point x="783" y="525"/>
      <point x="906" y="404"/>
      <point x="906" y="309" type="qcurve" smooth="yes"/>
      <point x="906" y="145"/>
      <point x="651" y="-30"/>
    </contour>
  </outline>
</glyph>
<glyph name="en" format="2">
  <advance width="862"/>
  <unicode hex="043D"/>
  <anchor x="763" y="0" name="cy_descender"/>
  <outline>
    <contour>
      <point x="10" y="0" type="line"/>
      <point x="10" y="1052" type="line"/>
      <point x="196" y="1052" type="line"/>
      <point x="196" y="0" type="line"/>
    </contour>
    <contour>
      <point x="106" y="465" type="line"/>
      <point x="106" y="610" type="line"/>
      <point x="756" y="610" type="line"/>
      <point x="756" y="465" type="line"/>
    </contour>
    <contour>
      <point x="666" y="0" type="line"/>
      <point x="666" y="1052" type="line"/>
      <point x="852" y="1052" type="line"/>
      <point x="852" y="0" type="line"/>
    </contour>
  </outline>
</glyph>
<glyph name="sha" format="2">
  <advance width="1398"/>
  <unicode hex="0448"/>
  <anchor x="1292" y="0" name="cy_descender"/>
  <outline>
    <contour>
      <point x="10" y="0" type="line"/>
      <point x="10" y="1052" type="line"/>
      <point x="196" y="1052" type="line"/>
      <point x="196" y="145" type="line"/>
      <point x="606" y="145" type="line"/>
      <point x="606" y="1052" type="line"/>
      <point x="792" y="1052" type="line"/>
      <point x="792" y="145" type="line"/>
      <point x="1202" y="145" type="line"/>
      <point x="1202" y="1052" type="line"/>
      <point x="1388" y="1052" type="line"/>
      <point x="1388" y="0" type="line"/>
    </contour>
  </outline>
</glyph>
<glyph name="soft" format="2">
  <advance width="860"/>
  <unicode hex="044C"/>
  <outline>
    <contour>
      <point x="10" y="0" type="line"/>
      <point x="10" y="1052" type="line"/>
      <point x="196" y="1052" type="line"/>
      <point x="196" y="145" type="line"/>
      <point x="438" y="145" type="line" smooth="yes"/>
      <point x="563" y="145"/>
      <point x="664" y="260"/>
      <point x="664" y="348" type="qcurve" smooth="yes"/>
      <point x="664" y="435"/>
      <point x="563" y="547"/>
      <point x="438" y="547" type="qcurve" smooth="yes"/>
      <point x="106" y="547" type="line"/>
      <point x="106" y="692" type="line"/>
      <point x="438" y="692" type="line" smooth="yes"/>
      <point x="636" y="692"/>
      <point x="850" y="506"/>
      <point x="850" y="348" type="qcurve" smooth="yes"/>
      <point x="850" y="190"/>
      <point x="636" y="0"/>
      <point x="438" y="0" type="qcurve" smooth="yes"/>
    </contour>
  </outline>
</glyph>
<glyph name="ieukran" format="2">
  <advance width="934"/>
  <unicode hex="0454"/>
  <guideline x="180" y="548" angle="90" identifier="n4jm0tBg3Y"/>
  <outline>
    <contour>
      <point x="10" y="510" type="qcurve" smooth="yes"/>
      <point x="10" y="542" type="line" smooth="yes"/>
      <point x="10" y="784"/>
      <point x="269" y="1082"/>
      <point x="496" y="1082" type="qcurve" smooth="yes"/>
      <point x="706" y="1082"/>
      <point x="924" y="855"/>
      <point x="924" y="715" type="qcurve" smooth="yes"/>
      <point x="924" y="710" type="line"/>
      <point x="744" y="710" type="line"/>
      <point x="744" y="715" type="line" smooth="yes"/>
      <point x="744" y="800"/>
      <point x="626" y="930"/>
      <point x="496" y="930" type="qcurve" smooth="yes"/>
      <point x="346" y="930"/>
      <point x="196" y="713"/>
      <point x="196" y="564" type="qcurve" smooth="yes"/>
      <point x="196" y="500" type="line" smooth="yes"/>
      <point x="196" y="339"/>
      <point x="346" y="122"/>
      <point x="496" y="122" type="qcurve" smooth="yes"/>
      <point x="626" y="122"/>
      <point x="744" y="252"/>
      <point x="744" y="337" type="qcurve" smooth="yes"/>
      <point x="744" y="342" type="line"/>
      <point x="924" y="342" type="line"/>
      <point x="924" y="337" type="line" smooth="yes"/>
      <point x="924" y="197"/>
      <point x="706" y="-30"/>
      <point x="496" y="-30" type="qcurve" smooth="yes"/>
      <point x="269" y="-30"/>
      <point x="10" y="268"/>
    </contour>
    <contour>
      <point x="106" y="610" type="line"/>
      <point x="635" y="610" type="line"/>
      <point x="635" y="465" type="line"/>
      <point x="106" y="465" type="line"/>
    </contour>
  </outline>
</glyph>
<glyph name="Shha" format="2">
  <advance width="1098"/>
  <unicode hex="04BA"/>
  <outline>
    <contour>
      <point x="896" y="424" type="line" smooth="yes"/>
      <point x="896" y="602"/>
      <point x="733" y="722"/>
      <point x="535" y="722" type="qcurve" smooth="yes"/>
      <point x="416" y="722"/>
      <point x="206" y="702"/>
      <point x="106" y="681" type="qcurve"/>
      <point x="106" y="839" type="line"/>
      <point x="240" y="861"/>
      <point x="425" y="880"/>
      <point x="550" y="880" type="qcurve" smooth="yes"/>
      <point x="861" y="880"/>
      <point x="1088" y="649"/>
      <point x="1088" y="421" type="qcurve" smooth="yes"/>
      <point x="1088" y="0" type="line"/>
      <point x="896" y="0" type="line"/>
    </contour>
    <contour>
      <point x="10" y="0" type="line"/>
      <point x="10" y="1456" type="line"/>
      <point x="202" y="1456" type="line"/>
      <point x="202" y="0" type="line"/>
    </contour>
  </outline>
</glyph>
<glyph name="emdash" format="2">
  <advance width="1548"/>
  <unicode hex="2014"/>
  <outline>
    <contour>
      <point x="10" y="532" type="line"/>
      <point x="10" y="700" type="line"/>
      <point x="1538" y="700" type="line"/>
      <point x="1538" y="532" type="line"/>
    </contour>
  </outline>
</glyph>
<glyph name="quoteright" format="2">
  <advance width="299"/>
  <unicode hex="2019"/>
  <outline>
    <contour>
      <point x="289" y="1456" type="line"/>
      <point x="289" y="1328" type="line" smooth="yes"/>
      <point x="289" y="1238"/>
      <point x="198" y="1034"/>
      <point x="116" y="966" type="qcurve"/>
      <point x="10" y="1039" type="line"/>
      <point x="57" y="1105"/>
      <point x="105" y="1244"/>
      <point x="105" y="1325" type="qcurve" smooth="yes"/>
      <point x="105" y="1456" type="line"/>
    </contour>
  </outline>
</glyph>
<glyph name="bullet" format="2">
  <advance width="596"/>
  <unicode hex="2022"/>
  <outline>
    <contour>
      <point x="10" y="773" type="qcurve" smooth="yes"/>
      <point x="10" y="889"/>
      <point x="172" y="1061"/>
      <point x="298" y="1061" type="qcurve" smooth="yes"/>
      <point x="424" y="1061"/>
      <point x="586" y="889"/>
      <point x="586" y="773" type="qcurve" smooth="yes"/>
      <point x="586" y="659"/>
      <point x="424" y="487"/>
      <point x="298" y="487" type="qcurve" smooth="yes"/>
      <point x="172" y="487"/>
      <point x="10" y="659"/>
    </contour>
  </outline>
</glyph>
<glyph name="uni20B2" format="2">
  <advance width="921"/>
  <unicode hex="20B2"/>
  <outline>
    <contour>
      <point x="395" y="-190" type="line"/>
      <point x="395" y="57" type="line"/>
      <point x="413" y="71" type="line"/>
      <point x="413" y="708" type="line"/>
      <point x="543" y="708" type="line"/>
      <point x="543" y="70" type="line"/>
      <point x="565" y="60" type="line"/>
      <point x="565" y="-190" type="line"/>
    </contour>
    <contour>
      <point x="413" y="708" type="line"/>
      <point x="413" y="1392" type="line"/>
      <point x="398" y="1402" type="line"/>
      <point x="398" y="1632" type="line"/>
      <point x="558" y="1632" type="line"/>
      <point x="558" y="1402" type="line"/>
      <point x="543" y="1389" type="line"/>
      <point x="543" y="708" type="line"/>
    </contour>
    <contour>
      <point x="911" y="745" type="line"/>
      <point x="911" y="452" type="line" smooth="yes"/>
      <point x="911" y="232"/>
      <point x="691" y="-5"/>
      <point x="487" y="-5" type="qcurve" smooth="yes"/>
      <point x="257" y="-5"/>
      <point x="10" y="278"/>
      <point x="10" y="542" type="qcurve" smooth="yes"/>
      <point x="10" y="897" type="line" smooth="yes"/>
      <point x="10" y="1180"/>
      <point x="252" y="1485"/>
      <point x="473" y="1485" type="qcurve" smooth="yes"/>
      <point x="671" y="1485"/>
      <point x="909" y="1264"/>
      <point x="909" y="1055" type="qcurve" smooth="yes"/>
      <point x="909" y="1011" type="line"/>
      <point x="719" y="1011" type="line"/>
      <point x="719" y="1051" type="line" smooth="yes"/>
      <point x="719" y="1173"/>
      <point x="597" y="1328"/>
      <point x="473" y="1328" type="qcurve" smooth="yes"/>
      <point x="343" y="1328"/>
      <point x="204" y="1106"/>
      <point x="204" y="899" type="qcurve" smooth="yes"/>
      <point x="204" y="544" type="line" smooth="yes"/>
      <point x="204" y="356"/>
      <point x="358" y="153"/>
      <point x="487" y="153" type="qcurve" smooth="yes"/>
      <point x="616" y="153"/>
      <point x="739" y="298"/>
      <point x="739" y="433" type="qcurve" smooth="yes"/>
      <point x="739" y="589" type="line"/>
      <point x="602" y="589" type="line"/>
      <point x="602" y="745" type="line"/>
    </contour>
  </outline>
</glyph>
<glyph name="ruble" format="2">
  <advance width="1024"/>
  <unicode hex="20BD"/>
  <outline>
    <contour>
      <point x="506" y="611" type="qcurve" smooth="yes"/>
      <point x="10" y="611" type="line"/>
      <point x="10" y="768" type="line"/>
      <point x="506" y="768" type="line" smooth="yes"/>
      <point x="669" y="768"/>
      <point x="822" y="913"/>
      <point x="822" y="1033" type="qcurve" smooth="yes"/>
      <point x="822" y="1138"/>
      <point x="675" y="1298"/>
      <point x="506" y="1298" type="qcurve" smooth="yes"/>
      <point x="347" y="1298" type="line"/>
      <point x="347" y="0" type="line"/>
      <point x="168" y="0" type="line"/>
      <point x="168" y="1456" type="line"/>
      <point x="506" y="1456" type="line" smooth="yes"/>
      <point x="752" y="1456"/>
      <point x="1014" y="1217"/>
      <point x="1014" y="1035" type="qcurve" smooth="yes"/>
      <point x="1014" y="835"/>
      <point x="752" y="611"/>
    </contour>
    <contour>
      <point x="734" y="445" type="line"/>
      <point x="734" y="286" type="line"/>
      <point x="10" y="286" type="line"/>
      <point x="10" y="445" type="line"/>
    </contour>
  </outline>
</glyph>
<glyph name="arrowleft" format="2">
  <advance width="1403"/>
  <unicode hex="2190"/>
  <outline>
    <contour>
      <point x="1393" y="607" type="line"/>
      <point x="369" y="607" type="line"/>
      <point x="369" y="693" type="line"/>
      <point x="369" y="779" type="line"/>
      <point x="1393" y="779" type="line"/>
    </contour>
    <contour>
      <point x="644" y="249" type="line"/>
      <point x="10" y="668" type="line"/>
      <point x="10" y="718" type="line"/>
      <point x="644" y="1135" type="line"/>
      <point x="678" y="1089" type="line"/>
      <point x="412" y="693" type="line"/>
      <point x="679" y="297" type="line"/>
    </contour>
  </outline>
</glyph>
<glyph name="bulletoperator" format="2">
  <advance width="308"/>
  <unicode hex="2219"/>
  <outline>
    <contour>
      <point x="10" y="674" type="qcurve" smooth="yes"/>
      <point x="10" y="732"/>
      <point x="91" y="818"/>
      <point x="154" y="818" type="qcurve" smooth="yes"/>
      <point x="217" y="818"/>
      <point x="298" y="732"/>
      <point x="298" y="674" type="qcurve" smooth="yes"/>
      <point x="298" y="617"/>
      <point x="217" y="531"/>
      <point x="154" y="531" type="qcurve" smooth="yes"/>
      <point x="91" y="531"/>
      <point x="10" y="617"/>
    </contour>
  </outline>
</glyph>
<glyph name="leftanglebracket" format="2">
  <advance width="735"/>
  <unicode hex="27E8"/>
  <outline>
    <contour>
      <point x="10" y="536" type="line"/>
      <point x="10" y="665" type="line"/>
      <point x="612" y="1499" type="line"/>
      <point x="725" y="1413" type="line"/>
      <point x="201" y="604" type="line"/>
      <point x="724" y="-219" type="line"/>
      <point x="612" y="-304" type="line"/>
    </contour>
  </outline>
</glyph>
<glyph name="dollar.rvrn" format="2">
  <advance width="990"/>
  <outline>
    <contour>
      <point x="10" y="381" type="qcurve" smooth="yes"/>
      <point x="10" y="392" type="line"/>
      <point x="187" y="392" type="line"/>
      <point x="187" y="381" type="line" smooth="yes"/>
      <point x="187" y="261"/>
      <point x="352" y="143"/>
      <point x="500" y="143" type="qcurve" smooth="yes"/>
      <point x="647" y="143"/>
      <point x="805" y="265"/>
      <point x="805" y="365" type="qcurve" smooth="yes"/>
      <point x="805" y="455"/>
      <point x="660" y="608"/>
      <point x="440" y="670" type="qcurve" smooth="yes"/>
      <point x="221" y="731"/>
      <point x="38" y="946"/>
      <point x="38" y="1099" type="qcurve" smooth="yes"/>
      <point x="38" y="1254"/>
      <point x="278" y="1458"/>
      <point x="490" y="1458" type="qcurve" smooth="yes"/>
      <point x="703" y="1458"/>
      <point x="954" y="1235"/>
      <point x="954" y="1076" type="qcurve" smooth="yes"/>
      <point x="954" y="1065" type="line"/>
      <point x="777" y="1065" type="line"/>
      <point x="777" y="1076" type="line" smooth="yes"/>
      <point x="777" y="1181"/>
      <point x="633" y="1308"/>
      <point x="490" y="1308" type="qcurve" smooth="yes"/>
      <point x="348" y="1308"/>
      <point x="213" y="1199"/>
      <point x="213" y="1099" type="qcurve" smooth="yes"/>
      <point x="213" y="1018"/>
      <point x="352" y="873"/>
      <point x="568" y="812" type="qcurve" smooth="yes"/>
      <point x="783" y="752"/>
      <point x="980" y="527"/>
      <point x="980" y="365" type="qcurve" smooth="yes"/>
      <point x="980" y="202"/>
      <point x="721" y="-6"/>
      <point x="500" y="-6" type="qcurve" smooth="yes"/>
      <point x="278" y="-6"/>
      <point x="10" y="202"/>
    </contour>
    <contour>
      <point x="425" y="-170" type="line"/>
      <point x="425" y="98" type="line"/>
      <point x="561" y="98" type="line"/>
      <point x="561" y="80" type="line"/>
      <point x="575" y="70" type="line"/>
      <point x="575" y="-170" type="line"/>
    </contour>
    <contour>
      <point x="439" y="1368" type="line"/>
      <point x="439" y="1386" type="line"/>
      <point x="425" y="1396" type="line"/>
      <point x="425" y="1586" type="line"/>
      <point x="575" y="1586" type="line"/>
      <point x="575" y="1368" type="line"/>
    </contour>
  </outline>
</glyph>
<glyph name="horizontalbarH" format="2">
  <advance width="1456"/>
  <outline>
    <contour>
      <point x="1446" y="1027" type="line"/>
      <point x="1219" y="1025" type="line"/>
      <point x="1219" y="1162" type="line"/>
      <point x="1446" y="1164" type="line"/>
    </contour>
    <contour>
      <point x="10" y="1025" type="line"/>
      <point x="10" y="1162" type="line"/>
      <point x="244" y="1162" type="line"/>
      <point x="244" y="1025" type="line"/>
    </contour>
    <contour>
      <point x="244" y="1035" type="line"/>
      <point x="244" y="1152" type="line"/>
      <point x="1219" y="1152" type="line"/>
      <point x="1219" y="1035" type="line"/>
    </contour>
  </outline>
</glyph>
<glyph name="ve.bgr" format="2">
  <advance width="894"/>
  <outline>
    <contour>
      <point x="10" y="400" type="qcurve" smooth="yes"/>
      <point x="10" y="1070" type="line" smooth="yes"/>
      <point x="10" y="1258"/>
      <point x="236" y="1476"/>
      <point x="428" y="1476" type="qcurve" smooth="yes"/>
      <point x="615" y="1476"/>
      <point x="832" y="1264"/>
      <point x="832" y="1080" type="qcurve" smooth="yes"/>
      <point x="832" y="994"/>
      <point x="728" y="815"/>
      <point x="614" y="766" type="qcurve"/>
      <point x="614" y="762" type="line"/>
      <point x="733" y="736"/>
      <point x="884" y="568"/>
      <point x="884" y="421" type="qcurve" smooth="yes"/>
      <point x="884" y="201"/>
      <point x="647" y="-30"/>
      <point x="447" y="-30" type="qcurve" smooth="yes"/>
      <point x="234" y="-30"/>
      <point x="10" y="201"/>
    </contour>
    <contour>
      <point x="196" y="400" type="line" smooth="yes"/>
      <point x="196" y="257"/>
      <point x="323" y="122"/>
      <point x="447" y="122" type="qcurve" smooth="yes"/>
      <point x="571" y="122"/>
      <point x="698" y="257"/>
      <point x="698" y="420" type="qcurve" smooth="yes"/>
      <point x="698" y="552"/>
      <point x="549" y="683"/>
      <point x="409" y="688" type="qcurve" smooth="yes"/>
      <point x="116" y="688" type="line"/>
      <point x="116" y="830" type="line"/>
      <point x="400" y="830" type="line" smooth="yes"/>
      <point x="515" y="830"/>
      <point x="648" y="961"/>
      <point x="648" y="1070" type="qcurve" smooth="yes"/>
      <point x="648" y="1198"/>
      <point x="539" y="1324"/>
      <point x="428" y="1324" type="qcurve" smooth="yes"/>
      <point x="316" y="1324"/>
      <point x="196" y="1193"/>
      <point x="196" y="1070" type="qcurve" smooth="yes"/>
    </contour>
  </outline>
</glyph>
